<svg width="10" height="11" viewBox="0 0 10 11" fill="none" xmlns="http://www.w3.org/2000/svg">
<path d="M4.31845 1.78088C3.72625 1.78088 3.14734 1.95649 2.65494 2.2855C2.16255 2.61451 1.77877 3.08215 1.55214 3.62927C1.32552 4.17639 1.26622 4.77843 1.38175 5.35926C1.49729 5.94008 1.78246 6.4736 2.20121 6.89235C2.61996 7.3111 3.15348 7.59627 3.7343 7.71181C4.31513 7.82734 4.91717 7.76804 5.46429 7.54142C6.01141 7.31479 6.47905 6.93101 6.80806 6.43862C7.13707 5.94622 7.31268 5.36731 7.31268 4.77511C7.31263 3.98101 6.99715 3.21944 6.43563 2.65793C5.87412 2.09641 5.11255 1.78093 4.31845 1.78088V1.78088Z" stroke="black" stroke-width="0.609939" stroke-miterlimit="10"/>
<path d="M6.55225 7.00903L8.64338 9.10017" stroke="black" stroke-width="0.609939" stroke-miterlimit="10" stroke-linecap="round"/>
</svg>
